# xmcd
#
# Track frame offsets:
#	150
#	13339
#	27358
#	43008
#	56534
#	75738
#	91155
#	106206
#	118155
#	130671
#	141968
#
# Disc length: 2070 seconds
#
# Revision: 0
# Processed by: cddbd v1.4b41PL3 Copyright (c) Steve Scherf et al.
# Submitted via: audiograbber 1.80
#
DISCID=8f08140b
DTITLE=Digby Richards - Digby Richards
DYEAR=1900
DGENRE=
TTITLE0=If I could write a love song
TTITLE1=Be my day
TTITLE2=You can lay my mind at rest
TTITLE3=New York City (send my baby home)
TTITLE4=Rock 'n' Roll (I gave you all the best years of my life)
TTITLE5=My daddy was a song and dance man
TTITLE6=Be my guitar
TTITLE7=Dawning of the morning
TTITLE8=Sweetwater valley
TTITLE9=Spunky monkey
TTITLE10=The dancer
EXTD=From original RCA LP
EXTT0=
EXTT1=
EXTT2=
EXTT3=
EXTT4=
EXTT5=
EXTT6=
EXTT7=
EXTT8=
EXTT9=
EXTT10=
PLAYORDER=
